<svg xmlns="http://www.w3.org/2000/svg" viewBox="0 0 512 512" role="img" aria-labelledby="title desc">
  <title id="title">Luckygames.tips</title>
  <desc id="desc">Ícone com bolas de loteria em tons quentes e a letra L.</desc>
  <defs>
    <linearGradient id="bg" x1="64" x2="448" y1="42" y2="470" gradientUnits="userSpaceOnUse">
      <stop offset="0" stop-color="#111827"/>
      <stop offset="0.48" stop-color="#1f2937"/>
      <stop offset="1" stop-color="#451a03"/>
    </linearGradient>
    <linearGradient id="gold" x1="110" x2="410" y1="90" y2="430" gradientUnits="userSpaceOnUse">
      <stop offset="0" stop-color="#fde68a"/>
      <stop offset="0.45" stop-color="#f59e0b"/>
      <stop offset="1" stop-color="#fb7185"/>
    </linearGradient>
    <linearGradient id="ball" x1="142" x2="374" y1="118" y2="398" gradientUnits="userSpaceOnUse">
      <stop offset="0" stop-color="#fff7ed"/>
      <stop offset="0.34" stop-color="#fbbf24"/>
      <stop offset="0.72" stop-color="#f97316"/>
      <stop offset="1" stop-color="#e11d48"/>
    </linearGradient>
    <filter id="shadow" x="-20%" y="-20%" width="140%" height="140%">
      <feDropShadow dx="0" dy="20" stdDeviation="24" flood-color="#000000" flood-opacity="0.38"/>
    </filter>
  </defs>
  <rect width="512" height="512" rx="116" fill="url(#bg)"/>
  <path fill="#fbbf24" fill-opacity="0.12" d="M72 132c38-58 108-83 181-78 86 6 164 58 193 139 26 73 8 159-46 213-63 64-167 78-244 37-82-44-128-141-100-225 9-28 8-54 16-86Z"/>
  <g filter="url(#shadow)">
    <circle cx="258" cy="254" r="154" fill="url(#ball)"/>
    <circle cx="196" cy="174" r="32" fill="#fff7ed" fill-opacity="0.72"/>
    <circle cx="316" cy="354" r="28" fill="#7f1d1d" fill-opacity="0.18"/>
  </g>
  <path fill="#0f172a" d="M196 138h70v188h94v60H196V138Z"/>
  <path fill="url(#gold)" d="M178 118h70v188h94v60H178V118Z"/>
  <g fill="#fff7ed" fill-opacity="0.9">
    <circle cx="379" cy="137" r="14"/>
    <circle cx="404" cy="186" r="8"/>
    <circle cx="116" cy="342" r="10"/>
  </g>
</svg>
