<svg xmlns="http://www.w3.org/2000/svg" viewBox="0 0 1200 630" role="img" aria-labelledby="title desc">
  <title id="title">Luckygames.tips</title>
  <desc id="desc">Card social da Luckygames.tips para resultados e análises de loterias.</desc>
  <defs>
    <linearGradient id="bg" x1="92" x2="1110" y1="36" y2="594" gradientUnits="userSpaceOnUse">
      <stop offset="0" stop-color="#070b18"/>
      <stop offset="0.48" stop-color="#111827"/>
      <stop offset="1" stop-color="#451a03"/>
    </linearGradient>
    <linearGradient id="warm" x1="150" x2="1040" y1="72" y2="560" gradientUnits="userSpaceOnUse">
      <stop offset="0" stop-color="#fde68a"/>
      <stop offset="0.45" stop-color="#f59e0b"/>
      <stop offset="1" stop-color="#fb7185"/>
    </linearGradient>
    <linearGradient id="ball" x1="820" x2="1120" y1="110" y2="488" gradientUnits="userSpaceOnUse">
      <stop offset="0" stop-color="#fff7ed"/>
      <stop offset="0.3" stop-color="#fbbf24"/>
      <stop offset="0.72" stop-color="#f97316"/>
      <stop offset="1" stop-color="#e11d48"/>
    </linearGradient>
    <filter id="shadow" x="-20%" y="-20%" width="140%" height="140%">
      <feDropShadow dx="0" dy="24" stdDeviation="30" flood-color="#000000" flood-opacity="0.34"/>
    </filter>
  </defs>
  <rect width="1200" height="630" rx="54" fill="url(#bg)"/>
  <path fill="#f59e0b" fill-opacity="0.14" d="M-30 118C122 38 301 20 462 77c157 55 236 167 390 182 129 13 218-45 380-2v414H-30V118Z"/>
  <path fill="#38bdf8" fill-opacity="0.10" d="M0 498c160-72 309-84 486-42 126 30 265 72 404 28 115-37 203-110 310-108v254H0V498Z"/>
  <g transform="translate(752 84)" filter="url(#shadow)">
    <circle cx="228" cy="228" r="176" fill="url(#ball)"/>
    <circle cx="154" cy="132" r="36" fill="#fff7ed" fill-opacity="0.72"/>
    <path fill="#0f172a" d="M158 94h78v214h108v68H158V94Z"/>
    <path fill="url(#warm)" d="M138 72h78v214h108v68H138V72Z"/>
    <circle cx="364" cy="90" r="16" fill="#fff7ed" fill-opacity="0.86"/>
    <circle cx="394" cy="142" r="9" fill="#fff7ed" fill-opacity="0.72"/>
  </g>
  <g transform="translate(86 118)">
    <rect x="0" y="0" width="210" height="42" rx="21" fill="#f59e0b" fill-opacity="0.18" stroke="#fbbf24" stroke-opacity="0.36"/>
    <text x="24" y="28" fill="#fde68a" font-family="Inter, Arial, sans-serif" font-size="18" font-weight="800" letter-spacing="2">LOTERIAS COM MAIS CLAREZA</text>
    <text x="0" y="154" fill="#fff7ed" font-family="Inter, Arial, sans-serif" font-size="86" font-weight="900" letter-spacing="-5">Luckygames.tips</text>
    <text x="4" y="218" fill="#cbd5e1" font-family="Inter, Arial, sans-serif" font-size="34" font-weight="700">Resultados, filtros e análises rápidas</text>
    <text x="4" y="270" fill="#94a3b8" font-family="Inter, Arial, sans-serif" font-size="27" font-weight="600">Converse com os sorteios e encontre padrões nos dados.</text>
    <g transform="translate(0 340)">
      <rect x="0" y="0" width="174" height="54" rx="27" fill="#f97316" fill-opacity="0.20" stroke="#fb923c" stroke-opacity="0.44"/>
      <text x="26" y="36" fill="#ffedd5" font-family="Inter, Arial, sans-serif" font-size="22" font-weight="800">Resultados</text>
      <rect x="194" y="0" width="140" height="54" rx="27" fill="#fb7185" fill-opacity="0.18" stroke="#fb7185" stroke-opacity="0.36"/>
      <text x="222" y="36" fill="#ffe4e6" font-family="Inter, Arial, sans-serif" font-size="22" font-weight="800">Filtros</text>
      <rect x="354" y="0" width="152" height="54" rx="27" fill="#fbbf24" fill-opacity="0.16" stroke="#fbbf24" stroke-opacity="0.34"/>
      <text x="382" y="36" fill="#fef3c7" font-family="Inter, Arial, sans-serif" font-size="22" font-weight="800">Análise</text>
    </g>
  </g>
</svg>
